<svg xmlns="http://www.w3.org/2000/svg" xmlns:xlink="http://www.w3.org/1999/xlink" version="1.1" x="0px" y="0px" viewBox="0 0 100 100" style="enable-background:new 0 0 100 100;" xml:space="preserve">
	<path d="M17.2359619,54.3134766c-3.7843018,3.4735718-5.8729248,6.0392456-5.8729248,6.0392456  s3.0915527,1.1776733,8.105835,2.2937012C16.7124023,66.9811401,15.3590088,70,15.3590088,70  s3.2911377,0.3373413,8.4232178,0.1175537c-1.5405273,4.9004517-2.0665283,8.166687-2.0665283,8.166687  s3.2662354-0.526001,8.166748-2.0665894C29.6625977,81.3498535,30,84.6409912,30,84.6409912  s3.0187988-1.3533936,7.3535156-4.1098022c1.1159668,5.0142212,2.2937012,8.105835,2.2937012,8.105835  s2.5656738-2.088623,6.0393066-5.8730469C48.0622559,87.3184814,50,90,50,90s1.9377441-2.6815186,4.3134766-7.2360229  c3.4736328,3.7844238,6.0393066,5.8730469,6.0393066,5.8730469s1.1777344-3.0916138,2.2937012-8.105835  C66.9812012,83.2875977,70,84.6409912,70,84.6409912s0.3374023-3.2911377,0.1175537-8.4233398  c4.9005127,1.5405884,8.166748,2.0665894,8.166748,2.0665894s-0.526001-3.2662354-2.0665283-8.166687  C81.3498535,70.3373413,84.6409912,70,84.6409912,70s-1.3533936-3.0188599-4.1098633-7.3535767  c5.0142822-1.1160278,8.105835-2.2937012,8.105835-2.2937012s-2.088623-2.5656738-5.8729248-6.0392456  C87.3186035,51.9376831,90,50,90,50s-2.6815186-1.9376831-7.236084-4.3134766  c3.7844238-3.4736328,5.8730469-6.0393066,5.8730469-6.0393066s-3.0915527-1.1776733-8.1057129-2.2937012  C83.2875977,33.0187988,84.6409912,30,84.6409912,30s-3.2910156-0.3373413-8.4232178-0.1175537  c1.5405273-4.9004517,2.0665283-8.166748,2.0665283-8.166748s-3.2662354,0.526001-8.166748,2.0665894  C70.3374023,18.6500854,70,15.3589478,70,15.3589478s-3.0187988,1.3533936-7.3535156,4.1098022  c-1.1160889-5.0141602-2.2937012-8.1057739-2.2937012-8.1057739s-2.5656738,2.088623-6.0393066,5.8730469  C51.9377441,12.6815186,50,10,50,10s-1.9377441,2.6815186-4.3134766,7.2360229  c-3.4736328-3.7844238-6.0393066-5.8730469-6.0393066-5.8730469s-1.1776123,3.0916138-2.2937012,8.1057739  C33.0187988,16.7123413,30,15.3589478,30,15.3589478s-0.3374023,3.2911377-0.1175537,8.4233398  c-4.9005127-1.5405884-8.166748-2.0665894-8.166748-2.0665894s0.526001,3.2662964,2.0665283,8.166748  C18.6500244,29.6626587,15.3590088,30,15.3590088,30s1.3533936,3.0187988,4.1097412,7.3535156  c-5.0141602,1.1160278-8.1057129,2.2937012-8.1057129,2.2937012s2.088623,2.5656738,5.8730469,6.0393066  C12.6815186,48.0623169,10,50,10,50S12.6813965,51.9376831,17.2359619,54.3134766z"/>
</svg>
